<svg width="176" height="70" viewBox="0 0 176 70" fill="none" xmlns="http://www.w3.org/2000/svg">
<path d="M123.115 43.1347C123.114 40.7078 122.279 38.3549 120.75 36.4705C119.22 34.5861 117.09 33.2848 114.715 32.7847C114.258 28.6216 112.427 24.7294 109.511 21.7231C106.595 18.7167 102.761 16.7677 98.6135 16.184C94.4662 15.6002 90.2427 16.4149 86.6102 18.4995C82.9777 20.584 80.1433 23.8195 78.5549 27.6947C78.0275 27.6275 77.4966 27.5908 76.9649 27.5847C74.5815 27.5797 72.2426 28.23 70.2038 29.4645C68.1651 30.6991 66.505 32.4703 65.4049 34.5847C64.0711 34.2072 62.6721 34.1185 61.3012 34.3245C59.9304 34.5305 58.6192 35.0264 57.4552 35.7792C56.2912 36.5321 55.3011 37.5244 54.5509 38.6901C53.8008 39.8559 53.3078 41.1681 53.105 42.5395C52.9021 43.9108 52.994 45.3096 53.3745 46.6425C53.755 47.9755 54.4154 49.2121 55.3116 50.2696C56.2078 51.3272 57.3192 52.1815 58.5717 52.7756C59.8241 53.3697 61.1889 53.6898 62.5749 53.7147H113.495V53.6647C116.122 53.4231 118.564 52.2097 120.343 50.262C122.123 48.3144 123.111 45.7728 123.115 43.1347V43.1347Z" fill="white" stroke="#A8C8FF" stroke-miterlimit="10"/>
<path d="M82.755 42.4747C83.3017 42.4747 83.745 40.7734 83.745 38.6747C83.745 36.576 83.3017 34.8747 82.755 34.8747C82.2082 34.8747 81.765 36.576 81.765 38.6747C81.765 40.7734 82.2082 42.4747 82.755 42.4747Z" fill="#4D4D4D"/>
<path d="M96.6449 42.4747C97.1917 42.4747 97.6349 40.7734 97.6349 38.6747C97.6349 36.576 97.1917 34.8747 96.6449 34.8747C96.0981 34.8747 95.6549 36.576 95.6549 38.6747C95.6549 40.7734 96.0981 42.4747 96.6449 42.4747Z" fill="#4D4D4D"/>
<path d="M86.3949 42.4747C86.3949 45.0847 92.6149 45.1447 92.6749 42.4747" stroke="black"/>
</svg>
