<svg id="Layer_1" data-name="Layer 1" xmlns="http://www.w3.org/2000/svg" viewBox="0 0 340 359.39"><path d="M126.15,0h41.1l115,267H228L203.07,205.9H87.31L63.17,267H10Zm60.33,165.17-41.1-108.6-41.86,108.6Z" transform="translate(-10)"/><path d="M248.56,120.69a99,99,0,0,1,39.78,7.92q18.3,7.92,28.48,19.23l32.8-35.45q-16.22-15.08-42.8-24.32t-58.64-9.24a172.69,172.69,0,0,0-36.78,3.81l17.2,39.91A103.64,103.64,0,0,1,248.56,120.69Z" transform="translate(-10)"/><path d="M248.56,120.69a99,99,0,0,1,39.78,7.92q18.3,7.92,28.48,19.23l32.8-35.45q-16.22-15.08-42.8-24.32t-58.64-9.24a172.69,172.69,0,0,0-36.78,3.81l17.2,39.91A103.64,103.64,0,0,1,248.56,120.69Z" transform="translate(-10)"/><path d="M262.07,200.26,279,239.48h25v67.87q-22.63,9.43-53.18,9.43-22.24,0-39.78-7.35a84.68,84.68,0,0,1-29.79-20.55,91.82,91.82,0,0,1-18.86-31.11,113.2,113.2,0,0,1-6.6-39.41c0-1.55,0-3.08.1-4.61H103.48c0,1.54-.1,3.06-.1,4.61q0,31.3,10.75,57.13a131.74,131.74,0,0,0,30,44.5,135.46,135.46,0,0,0,46,29q26.77,10.38,59.21,10.37,31.67,0,56-5.46A207,207,0,0,0,350,338.65V200.26Z" transform="translate(-10)"/><path d="M262.07,200.26,279,239.48h25v67.87q-22.63,9.43-53.18,9.43-22.24,0-39.78-7.35a84.68,84.68,0,0,1-29.79-20.55,91.82,91.82,0,0,1-18.86-31.11,113.2,113.2,0,0,1-6.6-39.41c0-1.55,0-3.08.1-4.61H103.48c0,1.54-.1,3.06-.1,4.61q0,31.3,10.75,57.13a131.74,131.74,0,0,0,30,44.5,135.46,135.46,0,0,0,46,29q26.77,10.38,59.21,10.37,31.67,0,56-5.46A207,207,0,0,0,350,338.65V200.26Z" transform="translate(-10)"/></svg>